<svg width="96" height="72" viewBox="0 0 96 72" fill="none" xmlns="http://www.w3.org/2000/svg">
<path d="M95.8122 55.2108H0.140137V71.9914H95.8122V55.2108Z" fill="#25BFFF"/>
<path d="M95.8142 0.0970459H0.14209V52.8149H95.8142V0.0970459Z" fill="#237AE2"/>
<path fill-rule="evenodd" clip-rule="evenodd" d="M29.8226 18.6681H32.8256C33.2312 18.6681 33.5634 19.001 33.5634 19.4097V25.401H46.3648C46.6625 25.401 46.9041 25.6432 46.9041 25.9394V35.8789C46.9041 36.2854 46.5719 36.6183 46.1642 36.6183H43.1655C42.76 36.6183 42.4277 36.2854 42.4277 35.8789V28.9902H33.5612V35.8789C33.5612 36.2854 33.229 36.6183 32.8234 36.6183H29.8205C29.4149 36.6183 29.0827 36.2854 29.0827 35.8789V19.4097C29.0848 19.001 29.417 18.6681 29.8226 18.6681ZM23.0422 24.6572C23.0422 25.0659 23.3744 25.3989 23.7822 25.3989H26.783C27.1864 25.3989 27.5186 25.0681 27.5186 24.6572V23.2994C27.5186 20.7524 25.3764 18.6681 22.7661 18.6681H14.3677C11.753 18.6681 9.61084 20.7524 9.61084 23.2994V31.987C9.61084 34.534 11.753 36.6162 14.3677 36.6162H22.7661C25.3786 36.6162 27.5186 34.534 27.5186 31.987V29.8205C27.5186 29.414 27.1864 29.0789 26.783 29.0789H23.7822C23.3744 29.0789 23.0422 29.414 23.0422 29.8205V31.5199C23.0422 32.3502 22.367 33.027 21.5386 33.027H15.593C14.7668 33.027 14.0894 32.3502 14.0894 31.5199V23.7664C14.0894 22.9383 14.7646 22.2594 15.593 22.2594H21.5386C22.367 22.2594 23.0422 22.9362 23.0422 23.7664V24.6572ZM49.8812 18.6681H51.6632C52.7073 18.6681 53.6436 19.1545 54.2605 19.907L62.482 29.9286V19.4075C62.482 18.9989 62.8143 18.6659 63.222 18.6659H66.2206C66.6284 18.6659 66.9584 18.9989 66.9584 19.4075V35.8767C66.9584 36.2832 66.6284 36.6162 66.2206 36.6162H64.4387C63.3946 36.6162 62.4583 36.1318 61.8392 35.3794L53.6177 25.3556V35.8767C53.6177 36.2832 53.2854 36.6162 52.8777 36.6162H49.8791C49.4713 36.6162 49.1369 36.2832 49.1369 35.8767V19.4075C49.1391 19.001 49.4735 18.6681 49.8812 18.6681ZM86.3461 19.4075V21.5178C86.3461 21.9264 86.0139 22.2594 85.6083 22.2594H79.6757V35.8789C79.6757 36.2854 79.3435 36.6183 78.9358 36.6183H75.9371C75.5294 36.6183 75.1972 36.2854 75.1972 35.8789V22.2594H69.2646C68.8569 22.2594 68.5246 21.9264 68.5246 21.5178V19.4075C68.5246 18.9989 68.8569 18.6659 69.2646 18.6659H85.6062C86.0139 18.6681 86.3461 19.001 86.3461 19.4075Z" fill="white"/>
<path fill-rule="evenodd" clip-rule="evenodd" d="M43.1655 18.6681H46.1642C46.5741 18.6681 46.9041 19.0011 46.9041 19.4097V22.4151C46.9041 22.8216 46.5741 23.1567 46.1642 23.1567H43.1655C42.76 23.1567 42.4277 22.8216 42.4277 22.4151V19.4097C42.4277 19.0011 42.76 18.6681 43.1655 18.6681Z" fill="#D41518"/>
<path d="M37.8693 61.3751H37.8068H36.8338L35.725 64.0757L34.4953 61.3751H33.9258L32.75 64.0843L31.5894 61.3751H30.6424H30.5776L30.6424 61.5243L32.4998 65.8876H32.9248L34.217 62.893L35.5049 65.8876H35.9299L37.8068 61.5157L37.8693 61.3751Z" fill="white"/>
<path d="M28.2409 61.3513H28.2302C26.9552 61.3556 25.7622 62.2702 25.7622 63.6173C25.7622 64.9643 26.9552 65.881 28.2302 65.8854H28.2409C29.3196 65.8854 30.3767 65.1892 30.642 64.1362C30.6809 63.9719 30.7067 63.7989 30.7067 63.6173C30.7067 63.44 30.683 63.2692 30.642 63.107C30.3745 62.0605 29.3088 61.3513 28.2409 61.3513ZM28.2323 65.0854C27.4341 65.0854 26.8344 64.4 26.8344 63.6216C26.8344 62.8454 27.4406 62.1643 28.2323 62.1643H28.2345C29.0262 62.1643 29.6324 62.8475 29.6324 63.6216C29.6281 64.3935 29.024 65.0854 28.2323 65.0854Z" fill="white"/>
<path d="M18.7403 61.3794C18.1664 61.3794 17.6228 61.6562 17.256 62.0734C16.7081 61.1221 15.28 61.1999 14.704 61.8486V61.4464H13.6943V65.801H14.5616H14.7061V62.4994C14.9348 62.2983 15.3209 62.1124 15.6855 62.1426C16.1235 62.1794 16.4837 62.4518 16.4837 63.014V65.7989H16.5571H17.4027H17.4933V62.5535C18.0046 61.9243 19.2688 61.9264 19.2688 62.947V65.7989H19.3982H20.2763H20.2806V62.6334C20.2763 61.6972 19.4349 61.3794 18.7403 61.3794Z" fill="white"/>
<path d="M9.50278 62.9275H12.7172V61.8897H9.50278V60.2313H12.8854V59.2064H8.49316V65.7989H13.1141V64.7978H9.50278V62.9275Z" fill="white"/>
<path d="M23.0358 61.3449C22.6151 61.3492 22.2009 61.4595 21.8773 61.6865V61.4465H21.8708H20.9971H20.8677V67.9935H20.9971H21.8708H21.8773V65.5654C22.1987 65.7881 22.6108 65.8962 23.0358 65.8962C23.6614 65.8984 24.3064 65.6692 24.6947 65.2562C25.0895 64.8346 25.2858 64.2897 25.2858 63.6195C25.2858 62.9492 25.0895 62.4043 24.6947 61.9849C24.3021 61.5632 23.6592 61.3384 23.0358 61.3449ZM23.0358 65.1265C22.9495 65.1395 22.8632 65.1459 22.7683 65.1459C22.4382 65.1459 22.1426 65.0422 21.8795 64.8497V62.4C22.1426 62.2054 22.4425 62.1081 22.7683 62.1081C22.8632 62.1081 22.9495 62.1146 23.0358 62.1254C23.7757 62.24 24.1942 62.8303 24.1942 63.6195C24.1964 64.4108 23.78 65.0119 23.0358 65.1265Z" fill="white"/>
<path d="M40.2162 61.3622H40.145C39.062 61.3903 38.0567 62.0087 37.8065 63.0681C37.7677 63.2325 37.7461 63.4098 37.7461 63.5957C37.7461 63.7946 37.7698 63.9827 37.8065 64.1535C38.0524 65.2368 39.0211 65.8249 40.145 65.8919C40.2162 65.8962 40.2874 65.8984 40.3607 65.8984C41.0964 65.8984 41.6961 65.6952 42.3368 65.3297V64.4584C41.7177 64.813 41.1309 65.0854 40.4147 65.0854C40.3241 65.0854 40.2335 65.0811 40.1472 65.0703C39.4525 64.986 38.8981 64.5687 38.842 63.7752H40.1472H42.5331V63.6476C42.531 62.2314 41.571 61.3622 40.2162 61.3622ZM40.145 63.1546L38.8398 63.1568C38.9822 62.4649 39.4849 62.1254 40.145 62.1081H40.2054C40.831 62.1081 41.3812 62.4887 41.448 63.1546H40.145Z" fill="white"/>
<path d="M82.3138 59.2086H81.3042V65.8032H82.3138V59.2086Z" fill="white"/>
<path d="M44.1426 61.3773H43.2754H43.1309V65.8011H43.2754H44.1426V63.4551V63.4314V63.4076V63.3838V63.36V63.3146V63.2951V63.2735C44.1448 62.8865 44.1815 62.7503 44.6 62.56L45.5492 62.1362V61.226L44.1426 61.8378V61.3773Z" fill="white"/>
<path d="M78.994 61.3773H78.1289H77.9844V65.8011H78.1289H78.994V63.4551V63.4314V63.4076V63.3838V63.36V63.3146V63.2951V63.2735C78.9983 62.8865 79.0328 62.7503 79.4535 62.56L80.4006 62.1362V61.226L78.994 61.8378V61.3773Z" fill="white"/>
<path d="M87.3319 59.2562H86.4582H86.4517V61.6822C86.1303 61.4595 85.7161 61.3535 85.2932 61.3535C84.6676 61.3514 84.0226 61.5784 83.6343 61.9935C83.2416 62.4151 83.041 62.96 83.041 63.6303C83.041 64.2984 83.2416 64.8454 83.6343 65.2649C84.0291 65.6865 84.6719 65.9113 85.2932 65.9049C85.7139 65.9005 86.1281 65.7903 86.4517 65.5632V65.8011H86.4582H87.3319H87.4613V59.2562H87.3319V59.2562ZM86.4517 64.8497C86.1864 65.0443 85.8865 65.1438 85.5607 65.1438C85.4658 65.1438 85.3795 65.1351 85.2932 65.1243C84.5533 65.0097 84.1369 64.4173 84.1369 63.6303C84.1369 62.8389 84.5511 62.2378 85.2932 62.1232C85.3795 62.1103 85.4658 62.1038 85.5607 62.1038C85.8887 62.1038 86.1864 62.2076 86.4517 62.4V64.8497Z" fill="white"/>
<path d="M72.9406 59.2064H72.6277H71.7195L70.3626 63.2389L68.5957 59.2064H67.9982L66.309 63.2345L64.9024 59.2064H63.6426L66.0782 65.8486H66.2982L68.2851 61.0291L70.2504 65.8486H70.4618L72.6277 60.0497L72.9406 59.2064Z" fill="white"/>
<path d="M74.7914 61.3513H74.7807C73.9026 61.3556 73.0635 61.7881 72.6255 62.4973C72.4249 62.8194 72.3105 63.1978 72.3105 63.6173C72.3105 64.0367 72.4249 64.4151 72.6255 64.7373C73.0613 65.4486 73.9026 65.8832 74.7807 65.8854H74.7914C76.0405 65.8854 77.2529 64.9578 77.2529 63.6173C77.2529 62.2962 76.0254 61.3513 74.7914 61.3513ZM74.7807 65.0854C73.9846 65.0854 73.3827 64.4 73.3827 63.6216C73.3827 62.8454 73.9889 62.1643 74.7807 62.1643C75.5724 62.1643 76.1786 62.8475 76.1786 63.6216C76.1786 64.3935 75.5745 65.0854 74.7807 65.0854Z" fill="white"/>
<path d="M50.3168 64.1989V62.2011H51.6759V61.4486H50.3168V60.4346H49.3504L49.3461 61.4486H48.2847V62.2011H49.3072V64.2659C49.3072 65.3535 49.62 65.8875 50.7677 65.8875C51.0935 65.8875 51.4192 65.8248 51.7061 65.6648V64.8454C51.4753 64.9838 51.2208 65.0551 50.9532 65.0551C50.3729 65.0573 50.3168 64.7135 50.3168 64.1989Z" fill="white"/>
<path d="M54.6312 61.3794C54.1027 61.3794 53.5763 61.6389 53.2894 61.9783V59.2064H52.4243H52.2798V65.801H52.4243H53.2894V62.6616C53.5742 62.3026 53.9172 62.1037 54.3832 62.1037C55.0303 62.1037 55.2849 62.5426 55.2849 63.1372V65.7989H56.1608H56.2945V63.0637C56.2945 61.8508 55.5848 61.3794 54.6312 61.3794Z" fill="white"/>
<path d="M59.1747 61.3622H59.1014C57.8501 61.3946 56.7046 62.2162 56.7046 63.5935C56.7046 65.0357 57.8005 65.8119 59.1014 65.8898C59.1747 65.8941 59.2459 65.8962 59.3171 65.8962C60.0527 65.8962 60.6503 65.693 61.2932 65.3276V64.4562C60.674 64.8108 60.0872 65.0833 59.371 65.0833C59.2782 65.0833 59.1898 65.0789 59.1014 65.0681C58.4089 64.9838 57.8544 64.5665 57.7983 63.773H59.1014H61.4895V63.6454C61.4895 62.2314 60.5295 61.3622 59.1747 61.3622ZM59.1035 63.1546L57.8005 63.1568C57.9429 62.4649 58.4455 62.1254 59.1035 62.1081H59.1639C59.7895 62.1081 60.3396 62.4887 60.4087 63.1546H59.1035Z" fill="white"/>
</svg>
