<svg width="100" height="100" viewBox="0 0 100 100" fill="none" xmlns="http://www.w3.org/2000/svg">
<mask id="path-1-inside-1_315_169" fill="white">
<path d="M39.316 19.0907C38.841 19.0907 38.4316 19.4249 38.3363 19.8902L31.1236 55.1291C30.9967 55.7491 31.4704 56.3296 32.1033 56.3296H45.5848C46.2752 56.3296 46.758 57.0127 46.5274 57.6636L38.1139 81.4132C37.7508 82.4381 39.0536 83.2244 39.7912 82.4254L72.5018 46.9951C73.0932 46.3546 72.6388 45.3168 71.767 45.3168H53.3965C52.7113 45.3168 52.2291 44.6434 52.4497 43.9947L60.4725 20.4129C60.6932 19.7642 60.211 19.0908 59.5258 19.0908L39.316 19.0907Z"/>
</mask>
<path d="M59.5258 19.0908L59.5258 22.0908L59.5258 19.0908ZM52.4497 43.9947L49.6096 43.0285L52.4497 43.9947ZM72.5018 46.9951L70.2976 44.9601L72.5018 46.9951ZM39.7912 82.4254L37.587 80.3904L39.7912 82.4254ZM46.5274 57.6636L49.3552 58.6653L46.5274 57.6636ZM38.3363 19.8902L35.3972 19.2886L38.3363 19.8902ZM39.316 19.0907L39.316 22.0907L39.316 19.0907ZM35.3972 19.2886L28.1845 54.5275L34.0627 55.7307L41.2754 20.4918L35.3972 19.2886ZM32.1033 59.3296H45.5848V53.3296H32.1033V59.3296ZM43.6996 56.6618L35.2861 80.4114L40.9417 82.4149L49.3552 58.6653L43.6996 56.6618ZM41.9954 84.4605L74.706 49.0302L70.2976 44.9601L37.587 80.3904L41.9954 84.4605ZM71.767 42.3168H53.3965V48.3168H71.767V42.3168ZM55.2899 44.9609L63.3127 21.3791L57.6324 19.4466L49.6096 43.0285L55.2899 44.9609ZM59.5258 16.0908L39.316 16.0907L39.316 22.0907L59.5258 22.0908L59.5258 16.0908ZM63.3127 21.3791C64.1954 18.7845 62.2665 16.0908 59.5258 16.0908L59.5258 22.0908C58.1555 22.0908 57.1911 20.7439 57.6324 19.4466L63.3127 21.3791ZM53.3965 42.3168C54.7668 42.3168 55.7312 43.6636 55.2899 44.9609L49.6096 43.0285C48.7269 45.6231 50.6558 48.3168 53.3965 48.3168V42.3168ZM74.706 49.0302C77.0715 46.468 75.2542 42.3168 71.767 42.3168V48.3168C70.0234 48.3168 69.1148 46.2412 70.2976 44.9601L74.706 49.0302ZM35.2861 80.4114C33.8337 84.5112 39.045 87.6562 41.9954 84.4605L37.587 80.3904C39.0622 78.7925 41.6679 80.365 40.9417 82.4149L35.2861 80.4114ZM45.5848 59.3296C44.2039 59.3296 43.2385 57.9634 43.6996 56.6618L49.3552 58.6653C50.2774 56.0621 48.3466 53.3296 45.5848 53.3296V59.3296ZM28.1845 54.5275C27.6769 57.0077 29.5718 59.3296 32.1033 59.3296V53.3296C33.3691 53.3296 34.3165 54.4906 34.0627 55.7307L28.1845 54.5275ZM41.2754 20.4918C41.0849 21.4225 40.266 22.0907 39.316 22.0907L39.316 16.0907C37.416 16.0907 35.7782 17.4273 35.3972 19.2886L41.2754 20.4918Z" fill="white" mask="url(#path-1-inside-1_315_169)"/>
</svg>
